<?xml version="1.0" standalone="no"?>
<!DOCTYPE svg PUBLIC "-//W3C//DTD SVG 20010904//EN"
 "http://www.w3.org/TR/2001/REC-SVG-20010904/DTD/svg10.dtd">
<svg version="1.0" xmlns="http://www.w3.org/2000/svg"
 width="300.000000pt" height="450.000000pt" viewBox="0 0 300.000000 450.000000"
 preserveAspectRatio="xMidYMid meet">
<metadata>
Created by potrace 1.10, written by Peter Selinger 2001-2011
</metadata>
<g transform="translate(0.000000,450.000000) scale(0.100000,-0.100000)"
fill="#ffffff" stroke="none">
<path d="M1316 4444 c-562 -111 -1033 -687 -1211 -1480 -60 -268 -69 -362 -69
-709 0 -283 2 -337 22 -465 93 -597 312 -1066 649 -1391 246 -238 500 -349
795 -349 415 1 799 251 1080 702 353 568 481 1393 333 2133 -148 736 -541
1307 -1037 1504 -166 66 -396 88 -562 55z m448 -58 c192 -58 349 -151 509
-305 644 -619 855 -1879 482 -2888 -114 -305 -278 -567 -481 -764 -158 -153
-338 -260 -519 -310 -101 -27 -304 -37 -413 -19 -629 101 -1142 829 -1258
1785 -22 189 -23 552 0 735 76 618 316 1156 659 1476 144 134 313 235 474 284
112 34 158 39 313 36 122 -3 159 -8 234 -30z"/>
<path d="M1650 3973 c-56 -65 -115 -103 -157 -103 -46 0 -89 -24 -108 -60 -19
-36 -19 -103 -1 -138 14 -28 54 -68 59 -61 2 2 21 36 41 74 52 96 81 132 124
154 38 20 51 37 84 103 19 40 24 78 9 78 -5 0 -28 -21 -51 -47z"/>
<path d="M1530 3590 c-46 -66 -87 -120 -90 -120 -4 0 -27 7 -50 15 -45 16 -90
20 -90 8 0 -4 9 -25 20 -47 19 -41 43 -172 34 -188 -7 -11 -271 -10 -429 2
-157 12 -241 32 -277 67 -26 25 -26 25 -37 5 -6 -12 -11 -27 -11 -35 0 -7 -14
-41 -30 -75 -35 -68 -136 -171 -215 -216 -62 -36 -85 -55 -85 -73 0 -51 333
65 427 150 23 21 58 40 84 47 65 15 326 24 462 15 l117 -7 0 -28 c0 -28 -1
-28 -77 -35 -254 -21 -416 -96 -478 -220 -16 -32 -20 -60 -20 -135 1 -83 4
-103 29 -158 60 -131 182 -202 353 -205 l80 -2 -49 -56 c-113 -130 -339 -314
-450 -368 -94 -44 -159 -58 -312 -66 -133 -8 -175 -18 -119 -31 41 -9 158 -53
241 -91 110 -50 140 -52 215 -15 111 56 191 126 361 320 90 103 175 197 188
209 l24 23 -3 -343 c-7 -768 -10 -845 -33 -952 -27 -124 -75 -254 -120 -322
-19 -29 -37 -53 -40 -53 -3 0 -5 16 -6 35 -1 41 -31 78 -88 107 -34 17 -45 19
-77 9 -91 -27 -128 -112 -76 -170 63 -69 190 -90 282 -47 109 50 228 228 280
417 36 131 71 203 93 194 108 -45 130 -50 227 -50 98 0 103 1 180 40 44 22 81
45 83 51 2 7 -29 13 -88 18 -201 15 -334 95 -369 221 -7 26 -11 178 -11 443 0
342 2 402 14 402 17 0 147 -141 312 -340 132 -158 163 -187 257 -230 92 -43
170 -60 272 -59 139 0 213 36 107 51 -156 23 -457 228 -745 508 l-129 125 109
1 c126 1 193 21 261 79 84 73 139 244 113 358 -31 139 -135 220 -334 261 -42
9 -108 16 -147 16 l-70 0 0 40 0 40 138 0 c149 0 339 -14 440 -31 53 -10 72
-19 120 -60 70 -59 224 -152 363 -218 115 -55 133 -61 138 -46 2 6 -23 25 -55
44 -32 19 -97 73 -144 120 -76 76 -93 101 -154 221 -38 74 -74 138 -80 142 -5
4 -22 -4 -37 -16 -45 -38 -139 -51 -374 -50 -115 0 -241 4 -279 8 l-69 8 7
229 c3 126 4 229 2 229 -2 0 -41 -54 -86 -120z m-202 -616 l22 -6 0 -249 c0
-187 -3 -250 -12 -256 -7 -4 -55 -9 -105 -11 -85 -4 -98 -2 -148 23 -42 20
-61 37 -83 73 -25 43 -27 55 -27 152 1 94 3 110 27 157 37 69 85 100 178 116
40 7 123 7 148 1z m522 -47 c31 -16 52 -38 74 -77 30 -53 31 -60 31 -170 0
-100 -3 -121 -22 -156 -41 -78 -134 -112 -251 -94 -41 7 -72 17 -79 27 -14 18
-18 302 -6 426 l6 67 102 0 c87 0 108 -3 145 -23z"/>
<path d="M1899 3559 c-13 -13 -19 -29 -16 -44 4 -21 1 -23 -23 -19 -33 7 -60
-17 -60 -55 0 -34 17 -51 50 -51 36 0 64 32 56 63 -5 21 -3 23 24 19 38 -5 60
12 60 49 0 55 -52 77 -91 38z"/>
<path d="M1980 3475 c-7 -8 -10 -27 -8 -43 4 -26 2 -27 -27 -24 -36 4 -65 -18
-65 -49 0 -24 34 -59 58 -59 26 0 52 31 52 62 0 22 4 25 25 20 51 -9 86 56 49
92 -20 20 -68 21 -84 1z"/>
<path d="M934 1462 c-39 -26 -36 -79 6 -102 41 -22 91 31 69 73 -14 26 -28 37
-49 37 -8 0 -20 -4 -26 -8z"/>
<path d="M837 1372 c-20 -22 -22 -63 -5 -80 17 -17 64 -15 82 4 23 22 20 60
-6 78 -29 21 -51 20 -71 -2z"/>
<path d="M1005 1363 c-10 -9 -15 -27 -13 -42 4 -24 1 -26 -28 -23 -24 3 -35
-1 -48 -19 -21 -31 -20 -45 4 -69 38 -38 94 -16 92 37 0 27 2 29 24 25 31 -6
64 22 64 54 0 48 -61 72 -95 37z"/>
</g>
</svg>
